<svg xmlns="http://www.w3.org/2000/svg" width="1600" height="340" viewBox="0 0 1600 340"><defs><linearGradient id="b0" x1="50%" y1="100%" x2="50%" y2="0%"><stop offset="0" stop-color="#003057"></stop><stop offset="1" stop-color="#003057"></stop></linearGradient><linearGradient id="b1" x1="0%" y1="50%" x2="100%" y2="50%"><stop offset="0" stop-color="#004C97"></stop><stop offset="1" stop-color="#00518F"></stop></linearGradient><linearGradient id="b2" x1="50%" y1="0%" x2="50%" y2="100%"><stop offset="0" stop-color="#004C97"></stop><stop offset="1" stop-color="#003D69"></stop></linearGradient><linearGradient id="b3" x1="0%" y1="50%" x2="100%" y2="50%"><stop offset="0" stop-color="#072B4F"></stop><stop offset="1" stop-color="#00518F"></stop></linearGradient><linearGradient id="b4" x1="15%" y1="15%" x2="85%" y2="85%"><stop offset="0" stop-color="#072B4F"></stop><stop offset="1" stop-color="#003057"></stop></linearGradient><linearGradient id="b5" x1="15%" y1="15%" x2="85%" y2="85%"><stop offset="0" stop-color="#00437A"></stop><stop offset="1" stop-color="#003057"></stop></linearGradient><linearGradient id="b6" x1="15%" y1="85%" x2="85%" y2="15%"><stop offset="0" stop-color="#F9F6E5"></stop><stop offset="1" stop-color="#B39051"></stop></linearGradient><linearGradient id="b7" x1="50%" y1="100%" x2="50%" y2="0%"><stop offset="0" stop-color="#003057"></stop><stop offset="1" stop-color="#003D69"></stop></linearGradient><linearGradient id="b8" x1="15%" y1="15%" x2="85%" y2="85%"><stop offset="0" stop-color="#0A2A4A"></stop><stop offset="1" stop-color="#072B4F"></stop></linearGradient><linearGradient id="b9" x1="15%" y1="15%" x2="85%" y2="85%"><stop offset="0" stop-color="#00437A"></stop><stop offset="1" stop-color="#072B4F"></stop></linearGradient><linearGradient id="b10" x1="50%" y1="0%" x2="50%" y2="100%"><stop offset="0" stop-color="#072B4F"></stop><stop offset="1" stop-color="#00518F"></stop></linearGradient></defs><rect width="1600" height="340" fill="#051E39"></rect><rect x="0" y="0" width="145.5" height="340" fill="url(#b0)"></rect><rect x="145.5" y="0" width="145.5" height="340" fill="url(#b1)"></rect><rect x="290.9" y="0" width="145.5" height="340" fill="url(#b2)"></rect><rect x="436.4" y="0" width="145.5" height="340" fill="url(#b3)"></rect><rect x="581.8" y="0" width="145.5" height="340" fill="url(#b4)"></rect><rect x="727.3" y="0" width="145.5" height="340" fill="url(#b5)"></rect><rect x="872.7" y="0" width="145.5" height="340" fill="url(#b6)"></rect><rect x="1018" y="0" width="145.5" height="340" fill="url(#b7)"></rect><rect x="1164" y="0" width="145.5" height="340" fill="url(#b8)"></rect><rect x="1309" y="0" width="145.5" height="340" fill="url(#b9)"></rect><rect x="1455" y="0" width="145.5" height="340" fill="url(#b10)"></rect></svg>